<svg width="167" height="16" viewBox="0 0 167 16" fill="none" xmlns="http://www.w3.org/2000/svg">
<path d="M9.98 12.52H4.74L3.9 15H0.32L5.4 0.96H9.36L14.44 15H10.82L9.98 12.52ZM9.1 9.88L7.36 4.74L5.64 9.88H9.1ZM21.0661 15.14C20.0394 15.14 19.1194 14.9733 18.3061 14.64C17.4928 14.3067 16.8394 13.8133 16.3461 13.16C15.8661 12.5067 15.6128 11.72 15.5861 10.8H19.2261C19.2794 11.32 19.4594 11.72 19.7661 12C20.0728 12.2667 20.4728 12.4 20.9661 12.4C21.4728 12.4 21.8728 12.2867 22.1661 12.06C22.4594 11.82 22.6061 11.4933 22.6061 11.08C22.6061 10.7333 22.4861 10.4467 22.2461 10.22C22.0194 9.99333 21.7328 9.80667 21.3861 9.66C21.0528 9.51333 20.5728 9.34667 19.9461 9.16C19.0394 8.88 18.2994 8.6 17.7261 8.32C17.1528 8.04 16.6594 7.62667 16.2461 7.08C15.8328 6.53333 15.6261 5.82 15.6261 4.94C15.6261 3.63333 16.0994 2.61333 17.0461 1.88C17.9928 1.13333 19.2261 0.76 20.7461 0.76C22.2928 0.76 23.5394 1.13333 24.4861 1.88C25.4328 2.61333 25.9394 3.64 26.0061 4.96H22.3061C22.2794 4.50667 22.1128 4.15333 21.8061 3.9C21.4994 3.63333 21.1061 3.5 20.6261 3.5C20.2128 3.5 19.8794 3.61333 19.6261 3.84C19.3728 4.05333 19.2461 4.36667 19.2461 4.78C19.2461 5.23333 19.4594 5.58667 19.8861 5.84C20.3128 6.09333 20.9794 6.36667 21.8861 6.66C22.7928 6.96667 23.5261 7.26 24.0861 7.54C24.6594 7.82 25.1528 8.22667 25.5661 8.76C25.9794 9.29333 26.1861 9.98 26.1861 10.82C26.1861 11.62 25.9794 12.3467 25.5661 13C25.1661 13.6533 24.5794 14.1733 23.8061 14.56C23.0328 14.9467 22.1194 15.14 21.0661 15.14ZM37.6091 15.14C36.5824 15.14 35.6624 14.9733 34.8491 14.64C34.0357 14.3067 33.3824 13.8133 32.8891 13.16C32.4091 12.5067 32.1557 11.72 32.1291 10.8H35.7691C35.8224 11.32 36.0024 11.72 36.3091 12C36.6157 12.2667 37.0157 12.4 37.5091 12.4C38.0157 12.4 38.4157 12.2867 38.7091 12.06C39.0024 11.82 39.1491 11.4933 39.1491 11.08C39.1491 10.7333 39.0291 10.4467 38.7891 10.22C38.5624 9.99333 38.2757 9.80667 37.9291 9.66C37.5957 9.51333 37.1157 9.34667 36.4891 9.16C35.5824 8.88 34.8424 8.6 34.2691 8.32C33.6957 8.04 33.2024 7.62667 32.7891 7.08C32.3757 6.53333 32.1691 5.82 32.1691 4.94C32.1691 3.63333 32.6424 2.61333 33.5891 1.88C34.5357 1.13333 35.7691 0.76 37.2891 0.76C38.8357 0.76 40.0824 1.13333 41.0291 1.88C41.9757 2.61333 42.4824 3.64 42.5491 4.96H38.8491C38.8224 4.50667 38.6557 4.15333 38.3491 3.9C38.0424 3.63333 37.6491 3.5 37.1691 3.5C36.7557 3.5 36.4224 3.61333 36.1691 3.84C35.9157 4.05333 35.7891 4.36667 35.7891 4.78C35.7891 5.23333 36.0024 5.58667 36.4291 5.84C36.8557 6.09333 37.5224 6.36667 38.4291 6.66C39.3357 6.96667 40.0691 7.26 40.6291 7.54C41.2024 7.82 41.6957 8.22667 42.1091 8.76C42.5224 9.29333 42.7291 9.98 42.7291 10.82C42.7291 11.62 42.5224 12.3467 42.1091 13C41.7091 13.6533 41.1224 14.1733 40.3491 14.56C39.5757 14.9467 38.6624 15.14 37.6091 15.14ZM48.2538 3.7V6.54H52.8338V9.18H48.2538V12.26H53.4338V15H44.8338V0.96H53.4338V3.7H48.2538ZM59.0741 3.7V6.54H63.6541V9.18H59.0741V12.26H64.2541V15H55.6541V0.96H64.2541V3.7H59.0741ZM79.0344 15H75.6144L69.8944 6.34V15H66.4744V0.96H69.8944L75.6144 9.66V0.96H79.0344V15ZM92.3917 15.14C91.0717 15.14 89.8584 14.8333 88.7517 14.22C87.6584 13.6067 86.7851 12.7533 86.1317 11.66C85.4917 10.5533 85.1717 9.31333 85.1717 7.94C85.1717 6.56667 85.4917 5.33333 86.1317 4.24C86.7851 3.14667 87.6584 2.29333 88.7517 1.68C89.8584 1.06667 91.0717 0.76 92.3917 0.76C93.7117 0.76 94.9184 1.06667 96.0117 1.68C97.1184 2.29333 97.9851 3.14667 98.6117 4.24C99.2517 5.33333 99.5717 6.56667 99.5717 7.94C99.5717 9.31333 99.2517 10.5533 98.6117 11.66C97.9717 12.7533 97.1051 13.6067 96.0117 14.22C94.9184 14.8333 93.7117 15.14 92.3917 15.14ZM92.3917 12.02C93.5117 12.02 94.4051 11.6467 95.0717 10.9C95.7517 10.1533 96.0917 9.16667 96.0917 7.94C96.0917 6.7 95.7517 5.71333 95.0717 4.98C94.4051 4.23333 93.5117 3.86 92.3917 3.86C91.2584 3.86 90.3517 4.22667 89.6717 4.96C89.0051 5.69333 88.6717 6.68667 88.6717 7.94C88.6717 9.18 89.0051 10.1733 89.6717 10.92C90.3517 11.6533 91.2584 12.02 92.3917 12.02ZM114.034 15H110.614L104.894 6.34V15H101.474V0.96H104.894L110.614 9.66V0.96H114.034V15ZM130.852 0.96V3.7H127.132V15H123.712V3.7H119.992V0.96H130.852ZM145.748 0.96L140.768 15H136.488L131.508 0.96H135.148L138.628 11.56L142.128 0.96H145.748ZM162.156 15L160.856 13.74C159.562 14.7267 158.016 15.22 156.216 15.22C155.136 15.22 154.196 15.0467 153.396 14.7C152.596 14.34 151.976 13.84 151.536 13.2C151.109 12.5467 150.896 11.7867 150.896 10.92C150.896 10.04 151.129 9.24667 151.596 8.54C152.076 7.82 152.789 7.23333 153.736 6.78C153.389 6.35333 153.142 5.94667 152.996 5.56C152.849 5.16 152.776 4.72667 152.776 4.26C152.776 3.59333 152.949 2.98667 153.296 2.44C153.642 1.89333 154.142 1.46667 154.796 1.16C155.462 0.84 156.249 0.68 157.156 0.68C158.076 0.68 158.856 0.846666 159.496 1.18C160.136 1.51333 160.616 1.96 160.936 2.52C161.256 3.08 161.402 3.69333 161.376 4.36H158.156C158.169 4 158.076 3.72667 157.876 3.54C157.689 3.34 157.436 3.24 157.116 3.24C156.796 3.24 156.529 3.33333 156.316 3.52C156.102 3.70667 155.996 3.94667 155.996 4.24C155.996 4.52 156.082 4.81333 156.256 5.12C156.442 5.42667 156.729 5.78 157.116 6.18L160.536 9.52C160.562 9.45333 160.596 9.37333 160.636 9.28C160.689 9.18667 160.742 9.08 160.796 8.96L161.536 7.7H164.956L163.996 9.44C163.636 10.2267 163.222 10.9733 162.756 11.68L166.136 15H162.156ZM156.376 12.46C157.269 12.46 158.062 12.2067 158.756 11.7L155.636 8.68C154.676 9.17333 154.196 9.84 154.196 10.68C154.196 11.1867 154.389 11.6133 154.776 11.96C155.176 12.2933 155.709 12.46 156.376 12.46Z" fill="white"/>
</svg>
