<svg width="95" height="14" viewBox="0 0 95 14" fill="none" xmlns="http://www.w3.org/2000/svg">
<path d="M87.5231 8.24361C87.5231 7.23447 91.0036 6.89668 91.0036 6.89668L90.9546 5.8873C90.447 5.8734 88.4656 5.9462 88.4656 5.41599C88.4656 4.72385 91.4973 4.55513 92.5599 4.51764L92.3418 2.90259C90.5106 2.90767 82.2832 2.92968 81.9467 5.15633C81.7648 6.35849 84.1335 6.64246 84.1335 6.64246L84.1328 6.69906C84.1328 6.69906 81.0312 7.27245 81.0312 8.77382C81.0312 11.837 91.73 10.9793 94.4993 10.217C94.4993 10.217 94.2312 8.85654 94.109 8.79341C93.9985 8.73632 91.7527 9.06831 89.9705 9.02066C88.521 8.98171 87.5231 8.75047 87.5231 8.24361Z" fill="white"/>
<path d="M65.2319 1.50621C65.2319 2.37529 64.2787 2.98992 62.6104 2.98992C60.9714 2.98992 59.9873 2.38859 59.9873 1.50621C59.9873 0.521621 61.43 0 62.6092 0C63.7549 0 65.2319 0.508559 65.2319 1.50621Z" fill="white"/>
<path d="M80.3823 8.72725C80.2497 8.68311 79.2849 8.90008 78.2051 8.52589C76.4772 7.92698 76.2121 5.60986 78.2634 4.28616L76.3437 2.66071C72.9571 3.96579 72.2603 4.05879 71.9433 4.13123C71.786 3.67081 71.051 2.89739 69.4921 2.99027C68.6442 3.04082 67.3841 3.51673 67.0197 4.38364C66.7741 4.96779 66.9228 5.62365 67.4922 6.07186C68.313 6.71793 69.8798 6.55696 69.8798 6.55696C69.3866 8.62385 65.0901 10.0377 65.0901 7.82237V4.02142H59.9873V8.43578C59.9873 10.641 62.6936 11.2115 65.3509 11.0361C69.0689 10.7908 71.1602 8.65699 71.9225 6.35365L73.7364 5.93496C73.7364 5.93496 71.254 9.17038 74.3515 10.6418C76.1188 11.4812 79.3685 10.8342 80.6747 10.1382C80.6747 10.1382 80.4579 8.75241 80.3823 8.72725ZM68.7252 4.73703C68.7587 4.18554 70.1298 4.04403 70.2132 4.68212C70.2132 4.68212 68.6889 5.33255 68.7252 4.73703Z" fill="white"/>
<path d="M59.4244 9.1022C59.3777 9.0531 58.5015 9.27152 57.8666 9.11647C57.1657 8.94522 57.1201 8.42069 57.1201 7.7231L57.1205 3.99109C57.1205 3.99109 51.8657 3.99218 51.8653 3.99218V7.51424C51.8653 7.92955 51.9003 8.94074 50.426 8.94074C49.7631 8.94074 49.0065 8.88499 49.0065 7.92955V3.99109H43.7812L43.7857 8.47838C43.7857 11.0367 48.077 11.819 52.486 10.1488C52.486 10.1488 54.5498 11.7801 59.7102 10.5806C59.7102 10.5806 59.4849 9.16581 59.4244 9.1022Z" fill="white"/>
<path d="M42.2678 13.1256L42.2657 3.92385L37.4837 3.92458C37.4837 3.92458 37.6456 7.24394 37.3942 7.88892C36.9666 9.29136 33.5209 9.09217 33.5217 7.45716C33.523 5.55656 37.0309 5.88335 37.0309 5.88335L36.6796 3.92047C36.6796 3.92047 28.5692 3.16567 28.1807 7.50094C28.0938 10.5227 33.4766 11.7823 37.4573 10.2949L37.4555 13.8835L42.2678 13.1256Z" fill="white"/>
<path d="M26.7003 8.71058C27.1813 8.22198 27.1524 7.62767 26.7442 6.98027C26.1417 6.02459 24.4775 5.46499 24.0799 4.70645C23.9052 4.37313 23.9119 3.97729 24.1714 3.4899L24.0818 3.08958L18.4664 3.70989C18.1339 4.45876 18.473 5.04291 18.4974 5.1116C14.4411 9.45546 7.86281 9.49477 7.68769 7.96377C7.52345 6.52795 12.021 6.21072 12.021 6.21072L11.933 4.7795C11.933 4.7795 8.90351 5.01775 8.85804 4.08529C8.81111 3.12381 11.645 2.81299 13.2881 2.794L12.8687 0.485833C7.5486 0.42766 2.57573 1.59983 2.11881 3.60963C1.98166 4.21252 2.38428 5.27294 4.57876 5.71534V5.79238C4.57876 5.79238 -0.0311649 6.52009 0.000158911 8.52046C0.0279755 10.2999 4.00429 11.0902 6.81219 11.1099C12.5018 11.1496 15.5012 9.26401 15.5012 9.26401C14.7062 11.4391 20.9357 11.7018 25.2606 10.1407C25.4664 10.0665 27.1284 10.7741 28.1377 11.2202C28.1377 11.2202 28.7833 9.67388 28.6969 9.46332C28.6183 9.27187 26.7003 8.71058 26.7003 8.71058ZM21.1421 9.28892C20.5821 9.97877 18.3894 9.97212 18.5433 9.52053C18.7087 9.0347 20.884 9.15637 21.1421 9.28892ZM16.9225 8.55021C16.9225 8.55021 18.2407 7.71572 19.5955 6.52771C19.5955 6.52771 20.7624 7.20946 21.2965 8.02001C21.2965 8.02001 19.4359 7.66661 16.9225 8.55021Z" fill="white"/>
</svg>
