<svg width="32" height="17" viewBox="0 0 32 17" fill="none" xmlns="http://www.w3.org/2000/svg">
<path d="M17.2423 8.48693C17.2423 8.07673 17.2401 7.67283 17.1801 7.31641H9.92152V10.8795H12.0761C12.0761 11.2356 11.0802 11.9678 9.58598 11.9678C7.9422 11.9678 6.08117 10.649 6.04398 8.52712C6.00514 6.32879 7.86878 4.89106 9.58598 4.95366C10.9806 5.0045 11.5132 5.4126 12.2909 6.19378C12.2909 6.19378 16.8161 6.19728 16.9347 6.19728C16.7998 5.66804 16.4656 4.86837 15.8939 4.04055C15.8462 3.97164 15.7975 3.90218 15.746 3.83328C14.6027 2.28028 12.6162 0.703626 9.52972 0.700264C5.90318 0.695083 3.10416 3.16931 2.18112 6.19868C2.17015 6.23524 2.15958 6.27179 2.14874 6.30862C2.14874 6.3103 2.14805 6.31282 2.14736 6.31422C1.95785 6.99206 1.85547 7.70742 1.85547 8.44617C1.86233 9.15356 1.95236 9.83069 2.11594 10.4696C2.69836 12.6798 4.21424 14.5039 6.21003 15.4823C6.22609 15.49 6.24201 15.498 6.25848 15.5053C6.26877 15.5109 6.27934 15.515 6.2888 15.5199C7.29596 15.9873 8.42732 16.2477 9.62852 16.2573C12.1756 16.2363 14.4284 14.9644 15.8164 13.0179C15.8448 12.9777 17.2423 10.9148 17.2423 8.48693Z" fill="white"/>
<path d="M28.7109 12.984C28.7109 12.984 30.1255 11.1404 30.1308 8.68564C30.1421 3.86477 26.8329 0.753471 22.2165 0.746469C19.5421 0.742268 17.0765 2.19386 15.8138 3.9355C14.6906 5.48499 14.5055 6.77595 14.5055 7.71497C14.4523 8.88325 14.5648 9.43574 14.5648 9.43574C14.7278 10.6522 15.1906 11.8488 15.901 12.8924C17.2455 14.8681 19.4779 16.2998 22.243 16.2998C24.0781 16.3 25.3762 15.4204 25.6107 15.2932L26.0971 15.868H30.7976L28.7109 12.984ZM25.8494 9.60114L25.4481 9.09794H20.6795L22.6182 11.9062C20.6009 12.3097 18.6942 10.5603 18.722 8.55652C18.7503 6.50916 20.3694 4.98852 22.3055 5.00182C24.4309 5.01555 26.5512 7.36709 25.8494 9.60114Z" fill="white"/>
<g opacity="0.5">
<path d="M16.9348 6.19937C16.7999 5.67013 16.4657 4.86948 15.894 4.04208C15.8701 4.00692 15.8442 3.97177 15.8196 3.93634C15.8175 3.93914 15.8152 3.94194 15.8131 3.94474C15.21 4.77635 14.8779 5.53219 14.6992 6.19881C15.8012 6.19909 16.8777 6.19937 16.9348 6.19937Z" fill="white"/>
<path d="M17.2428 8.48693C17.2428 8.07673 17.2406 7.67283 17.1806 7.31641H14.5184C14.5096 7.31641 14.5055 7.59202 14.5055 7.72143C14.4523 8.88984 14.5648 9.43855 14.5648 9.43855C14.7271 10.6542 15.1895 11.8486 15.8987 12.8913C16.202 12.4053 17.2428 10.5822 17.2428 8.48693Z" fill="white"/>
</g>
</svg>
